<svg width="20" height="18" viewBox="0 0 20 18" fill="none" xmlns="http://www.w3.org/2000/svg">
<g clip-path="url(#clip0_10441_141748)">
<path d="M18.9499 6.89999V11.7C18.9499 12.78 18.0799 13.65 16.9999 13.65H11.4899C10.8999 13.65 10.4199 14.13 10.4199 14.72V16.38C10.4199 16.84 9.86991 17.08 9.53991 16.76L4.65991 12.11" stroke="#2C2C2C" stroke-width="1.12" stroke-miterlimit="10" stroke-linecap="round" stroke-linejoin="round"/>
<path d="M6.00005 13.65H3.00005C1.92005 13.65 1.05005 12.78 1.05005 11.7V3.82C1.05005 2.74 1.92005 1.87 3.00005 1.87H10.99" stroke="#2C2C2C" stroke-width="1.12" stroke-miterlimit="10" stroke-linecap="round" stroke-linejoin="round"/>
<path d="M13.1499 2.94999C13.1499 1.48999 14.4599 0.329989 15.9799 0.589989C16.9399 0.759989 17.7299 1.54999 17.8999 2.50999C18.1099 3.67999 17.4599 4.72999 16.4799 5.14999C15.9299 5.37999 15.5499 5.88999 15.5499 6.48999V7.78999" stroke="#2C2C2C" stroke-width="1.12" stroke-miterlimit="10" stroke-linecap="round" stroke-linejoin="round"/>
<path d="M15.55 10.02V10.36" stroke="#2C2C2C" stroke-width="1.12" stroke-miterlimit="10" stroke-linecap="round" stroke-linejoin="round"/>
<path d="M4.40991 5.82999H10.8199" stroke="#2C2C2C" stroke-width="1.12" stroke-miterlimit="10" stroke-linecap="round" stroke-linejoin="round"/>
<path d="M4.40991 9.01001H12.4499" stroke="#2C2C2C" stroke-width="1.12" stroke-miterlimit="10" stroke-linecap="round" stroke-linejoin="round"/>
</g>
<defs>
<clipPath id="clip0_10441_141748">
<rect width="19.02" height="17.47" fill="white" transform="translate(0.48999)"/>
</clipPath>
</defs>
</svg>
