<svg width="20" height="20" viewBox="0 0 20 20" fill="none" xmlns="http://www.w3.org/2000/svg">
<path d="M4.74166 11.2591L2 17.1846L5.80295 16.3887L8.01397 18.7766L9.95967 13.9123" stroke="#2C2C2C" stroke-width="1.23951" stroke-miterlimit="10" stroke-linecap="round" stroke-linejoin="round"/>
<path d="M15.178 11.2591L17.9196 17.1846L14.1167 16.3887L11.9057 18.7766L9.95996 13.9123" stroke="#2C2C2C" stroke-width="1.23951" stroke-miterlimit="10" stroke-linecap="round" stroke-linejoin="round"/>
<path d="M9.78277 13.7355C13.2996 13.7355 16.1505 10.8845 16.1505 7.36773C16.1505 3.85093 13.2996 1 9.78277 1C6.26597 1 3.41504 3.85093 3.41504 7.36773C3.41504 10.8845 6.26597 13.7355 9.78277 13.7355Z" stroke="#2C2C2C" stroke-width="1.23951" stroke-miterlimit="10" stroke-linecap="round" stroke-linejoin="round"/>
<path d="M10.0906 4.51811L10.7159 5.78458C10.7663 5.8854 10.8627 5.95616 10.9742 5.97208L12.3724 6.17549C12.6536 6.21617 12.766 6.56198 12.5626 6.76097L11.5508 7.74708C11.4703 7.82579 11.4332 7.939 11.4517 8.05043L11.6905 9.44249C11.7383 9.72285 11.4447 9.93599 11.1926 9.80421L9.94205 9.1471C9.84212 9.09492 9.72272 9.09492 9.62278 9.1471L8.37223 9.80421C8.12018 9.93687 7.82655 9.72285 7.87431 9.44249L8.1131 8.05043C8.13256 7.939 8.09541 7.82579 8.01405 7.74708L7.00228 6.76097C6.79887 6.56286 6.91119 6.21706 7.19243 6.17549L8.59068 5.97208C8.70212 5.95616 8.7994 5.8854 8.84893 5.78458L9.4742 4.51811C9.60067 4.26252 9.96416 4.26252 10.0906 4.51811Z" fill="#2C2C2C"/>
</svg>
