<svg width="28" height="28" viewBox="0 0 28 28" fill="none" xmlns="http://www.w3.org/2000/svg">
<path d="M21.0262 20.4654H10.1854C9.49058 20.4654 8.89505 19.9691 8.75168 19.2964L7.13051 11.1906C6.95406 10.2863 7.63782 9.44812 8.5642 9.44812H22.6474C23.5737 9.44812 24.2575 10.2863 24.0811 11.1906L22.4599 19.2964C22.3275 19.9691 21.732 20.4654 21.0262 20.4654Z" stroke="#FF4200" stroke-width="3" stroke-miterlimit="10" stroke-linecap="round" stroke-linejoin="round"/>
<path d="M12.3028 23.7739C12.9119 23.7739 13.4056 23.2801 13.4056 22.6711C13.4056 22.062 12.9119 21.5682 12.3028 21.5682C11.6937 21.5682 11.2 22.062 11.2 22.6711C11.2 23.2801 11.6937 23.7739 12.3028 23.7739Z" stroke="#00A9EA" stroke-width="3" stroke-miterlimit="10" stroke-linecap="round" stroke-linejoin="round"/>
<path d="M7.39527 16.7489L5.71896 8.36737C5.57559 7.65053 4.94698 7.1322 4.20809 7.1322H2.37738" stroke="#FF4200" stroke-width="3" stroke-miterlimit="10" stroke-linecap="round" stroke-linejoin="round"/>
<path d="M16.7077 20.4654H21.0262C21.7321 20.4654 22.3276 19.9691 22.4599 19.2964L24.0811 11.1906C24.2575 10.2863 23.5738 9.44812 22.6474 9.44812" stroke="#25258C" stroke-width="3" stroke-miterlimit="10" stroke-linecap="round" stroke-linejoin="round"/>
<path d="M20.0227 23.7739C20.6318 23.7739 21.1255 23.2801 21.1255 22.6711C21.1255 22.062 20.6318 21.5682 20.0227 21.5682C19.4136 21.5682 18.9199 22.062 18.9199 22.6711C18.9199 23.2801 19.4136 23.7739 20.0227 23.7739Z" stroke="#00A9EA" stroke-width="3" stroke-miterlimit="10" stroke-linecap="round" stroke-linejoin="round"/>
</svg>
