<svg width="22" height="21" viewBox="0 0 22 21" fill="none" xmlns="http://www.w3.org/2000/svg">
<path d="M5.69359 12.7347L4.96079 9.07068L4.22798 5.40667C4.10263 4.77993 3.55304 4.32675 2.90702 4.32675H1.30642M17.9984 15.9841H8.52015C7.9127 15.9841 7.39202 15.5502 7.26667 14.962L5.84928 7.87506C5.695 7.0844 6.29282 6.3516 7.10276 6.3516H19.4158C20.2257 6.3516 20.8235 7.0844 20.6692 7.87506L19.2518 14.962C19.1361 15.5502 18.6155 15.9841 17.9984 15.9841ZM11.3357 17.9125C11.3357 18.445 10.904 18.8767 10.3714 18.8767C9.83892 18.8767 9.40723 18.445 9.40723 17.9125C9.40723 17.38 9.83892 16.9483 10.3714 16.9483C10.904 16.9483 11.3357 17.38 11.3357 17.9125ZM17.1578 17.9125C17.1578 18.445 16.7261 18.8767 16.1936 18.8767C15.6611 18.8767 15.2294 18.445 15.2294 17.9125C15.2294 17.38 15.6611 16.9483 16.1936 16.9483C16.7261 16.9483 17.1578 17.38 17.1578 17.9125Z" stroke="#D1D3D9" stroke-width="1.5" stroke-miterlimit="10" stroke-linecap="round" stroke-linejoin="round"/>
</svg>
