<svg width="21" height="29" viewBox="0 0 21 29" fill="none" xmlns="http://www.w3.org/2000/svg">
<g clip-path="url(#clip0_2786_26858)">
<path d="M17.8493 9.54541H3.15073C1.41052 9.54541 0 10.9559 0 12.6961V25.7059C0 27.4461 1.41052 28.8566 3.15073 28.8566H17.8493C19.5895 28.8566 21 27.4461 21 25.7059V12.6961C21 10.9559 19.5895 9.54541 17.8493 9.54541ZM11.5015 20.3017V24.3776H9.49846V20.3017C8.33245 19.889 7.49612 18.7766 7.49612 17.4689C7.49612 15.8102 8.84129 14.465 10.5 14.465C12.1587 14.465 13.5039 15.8102 13.5039 17.4689C13.5039 18.7766 12.6676 19.889 11.5015 20.3017Z" fill="#FF4200"/>
<path d="M16.4473 14.9791V7.34269C16.4473 4.05759 13.7849 1.39514 10.4998 1.39514C7.21469 1.39514 4.55225 4.05759 4.55225 7.34269V14.9791" stroke="#FF4200" stroke-width="2.79021" stroke-miterlimit="10"/>
</g>
<defs>
<clipPath id="clip0_2786_26858">
<rect width="21" height="28.8566" fill="white"/>
</clipPath>
</defs>
</svg>
