<svg width="20" height="20" viewBox="0 0 20 20" fill="none" xmlns="http://www.w3.org/2000/svg">
<path d="M13.0547 8.96045H7.39453V12.675H13.0547V8.96045Z" stroke="#2C2C2C" stroke-width="1.23951" stroke-miterlimit="10" stroke-linecap="round" stroke-linejoin="round"/>
<path d="M11.9937 8.21422V7.49519C11.9937 6.51792 11.2021 5.72638 10.2249 5.72638C9.2476 5.72638 8.45605 6.51792 8.45605 7.49519V8.21422" stroke="#2C2C2C" stroke-width="1.23951" stroke-miterlimit="10" stroke-linecap="round" stroke-linejoin="round"/>
<path d="M18.45 4.66056C18.45 4.66056 17.8309 11.8013 15.443 14.588C13.0551 17.3748 10.225 18.1885 10.225 18.1885C10.225 18.1885 7.39488 17.3748 5.00698 14.588C2.61909 11.8013 2 4.66056 2 4.66056H3.07633C4.46838 4.66056 5.7322 3.86194 6.31237 2.61581C6.77934 1.61378 7.79022 1 8.86742 1C9.11241 1 11.3376 1 11.5826 1C12.6598 1 13.6706 1.61289 14.1376 2.61581C14.7178 3.86194 15.9816 4.66056 17.3736 4.66056H18.45Z" stroke="#2C2C2C" stroke-width="1.23951" stroke-miterlimit="10" stroke-linecap="round" stroke-linejoin="round"/>
</svg>
