<svg width="20" height="20" viewBox="0 0 20 20" fill="none" xmlns="http://www.w3.org/2000/svg">
<path d="M10.5024 2.56909L12.3643 6.3406C12.5127 6.64299 12.8011 6.85019 13.1343 6.90058L17.2978 7.50537C18.135 7.62577 18.471 8.65614 17.8634 9.24693L14.8507 12.1841C14.6099 12.4193 14.5007 12.758 14.5567 13.0884L15.2678 17.2351C15.4106 18.0695 14.5343 18.7051 13.7867 18.3131L10.0628 16.356C9.76597 16.1992 9.41038 16.1992 9.11079 16.356L5.38688 18.3131C4.6365 18.7079 3.76012 18.0695 3.90571 17.2351L4.6169 13.0884C4.6729 12.758 4.56369 12.4193 4.3229 12.1841L1.31017 9.24693C0.702582 8.65614 1.03858 7.62577 1.87576 7.50537L6.03926 6.90058C6.37245 6.85299 6.66085 6.64299 6.80924 6.3406L8.6712 2.56909C9.04639 1.8103 10.13 1.8103 10.5024 2.56909Z" stroke="#2C2C2C" stroke-width="1.11997" stroke-miterlimit="10"/>
<path d="M7.2041 10.9353L8.75806 12.4892C8.99606 12.7272 9.37965 12.7272 9.61484 12.4892L12.4708 9.6333" stroke="#2C2C2C" stroke-width="1.11997" stroke-miterlimit="10" stroke-linecap="round" stroke-linejoin="round"/>
</svg>
