<svg width="20" height="20" viewBox="0 0 20 20" fill="none" xmlns="http://www.w3.org/2000/svg">
<g clip-path="url(#clip0_10440_141732)">
<path d="M18.6999 12.23C17.6699 16.21 13.9499 19.05 9.67993 18.83C4.79993 18.57 1.05993 14.41 1.30993 9.54001C1.55993 4.67001 5.72993 0.920011 10.5999 1.17001C12.7099 1.28001 14.5999 2.12001 16.0599 3.43001" stroke="#2C2C2C" stroke-width="1.12" stroke-miterlimit="10" stroke-linecap="round" stroke-linejoin="round"/>
<path d="M15.48 5.59C14.04 6.25 12.08 6.65 9.92996 6.65C7.26996 6.65 4.90996 6.03 3.45996 5.09" stroke="#2C2C2C" stroke-width="1.12" stroke-miterlimit="10" stroke-linecap="round" stroke-linejoin="round"/>
<path d="M3.45996 15.22C4.88996 14.2 7.33996 13.53 10.11 13.53C12.77 13.53 15.13 14.15 16.58 15.09" stroke="#2C2C2C" stroke-width="1.12" stroke-miterlimit="10" stroke-linecap="round" stroke-linejoin="round"/>
<path d="M14.19 10C14.19 14.88 12.32 18.84 10 18.84C8.39004 18.84 6.99004 16.92 6.29004 14.1" stroke="#2C2C2C" stroke-width="1.12" stroke-miterlimit="10" stroke-linecap="round" stroke-linejoin="round"/>
<path d="M5.81006 10C5.81006 5.12 7.68006 1.16 10.0001 1.16C11.6701 1.16 13.1101 3.21 13.7801 6.19" stroke="#2C2C2C" stroke-width="1.12" stroke-miterlimit="10" stroke-linecap="round" stroke-linejoin="round"/>
<path d="M10 13.53V18.39" stroke="#2C2C2C" stroke-width="1.12" stroke-miterlimit="10" stroke-linecap="round" stroke-linejoin="round"/>
<path d="M10 1.62V6.47" stroke="#2C2C2C" stroke-width="1.12" stroke-miterlimit="10" stroke-linecap="round" stroke-linejoin="round"/>
<path d="M18.3801 10H1.61011" stroke="#2C2C2C" stroke-width="1.12" stroke-miterlimit="10" stroke-linecap="round" stroke-linejoin="round"/>
</g>
<defs>
<clipPath id="clip0_10440_141732">
<rect width="18.52" height="18.8" fill="white" transform="translate(0.73999 0.600006)"/>
</clipPath>
</defs>
</svg>
