<svg width="14" height="14" viewBox="0 0 14 14" fill="none" xmlns="http://www.w3.org/2000/svg">
<path d="M7.14014 9C8.24471 9 9.14014 8.10457 9.14014 7C9.14014 5.89543 8.24471 5 7.14014 5C6.03557 5 5.14014 5.89543 5.14014 7C5.14014 8.10457 6.03557 9 7.14014 9Z" stroke="white" stroke-miterlimit="10"/>
<path d="M12.8593 9.57214L12.0998 10.9279C11.8104 11.4386 11.1684 11.615 10.6711 11.3179L9.68553 10.7329C9.41426 10.9464 9.12491 11.1136 8.80844 11.2621V12.4229C8.80844 13.0171 8.33824 13.5 7.75954 13.5H6.24046C5.66176 13.5 5.19157 13.0171 5.19157 12.4229V11.2621C4.87509 11.1136 4.58574 10.9464 4.31447 10.7329L3.32888 11.3179C2.83156 11.615 2.18956 11.4386 1.90021 10.9279L1.14067 9.57214C0.851323 9.06143 1.02312 8.40214 1.52044 8.105L2.51508 7.52C2.48796 7.35286 2.47891 7.17643 2.47891 7C2.47891 6.82357 2.48796 6.64714 2.51508 6.48L1.52044 5.895C1.02312 5.59786 0.851323 4.93857 1.14067 4.42786L1.90021 3.07214C2.18956 2.56143 2.83156 2.385 3.32888 2.68214L4.31447 3.26714C4.58574 3.05357 4.87509 2.88643 5.19157 2.73786V1.57714C5.19157 0.982857 5.66176 0.5 6.24046 0.5H7.75954C8.33824 0.5 8.80844 0.982857 8.80844 1.57714V2.73786C9.12491 2.88643 9.41426 3.05357 9.68553 3.26714L10.6711 2.68214C11.1684 2.385 11.8104 2.56143 12.0998 3.07214L12.8593 4.42786C13.1487 4.93857 12.9769 5.59786 12.4796 5.895L11.4849 6.48C11.512 6.64714 11.5211 6.82357 11.5211 7C11.5211 7.17643 11.512 7.35286 11.4849 7.52L12.4796 8.105C12.9769 8.40214 13.1487 9.06143 12.8593 9.57214Z" stroke="white" stroke-miterlimit="10"/>
</svg>
