<svg width="20" height="18" viewBox="0 0 20 18" fill="none" xmlns="http://www.w3.org/2000/svg">
<g clip-path="url(#clip0_10445_21682)">
<path d="M11.5602 8.35001L9.22021 10.01L11.4602 11.59" stroke="#2C2C2C" stroke-width="1.12" stroke-miterlimit="10" stroke-linecap="round" stroke-linejoin="round"/>
<path d="M12.5502 8.34C12.8761 8.34 13.1402 8.07585 13.1402 7.75C13.1402 7.42416 12.8761 7.16 12.5502 7.16C12.2244 7.16 11.9602 7.42416 11.9602 7.75C11.9602 8.07585 12.2244 8.34 12.5502 8.34Z" stroke="#2C2C2C" stroke-width="1.12" stroke-miterlimit="10" stroke-linecap="round" stroke-linejoin="round"/>
<path d="M12.4501 12.78C12.776 12.78 13.0401 12.5159 13.0401 12.19C13.0401 11.8642 12.776 11.6 12.4501 11.6C12.1243 11.6 11.8601 11.8642 11.8601 12.19C11.8601 12.5159 12.1243 12.78 12.4501 12.78Z" stroke="#2C2C2C" stroke-width="1.12" stroke-miterlimit="10" stroke-linecap="round" stroke-linejoin="round"/>
<path d="M7.92008 10.65C8.24593 10.65 8.51008 10.3858 8.51008 10.06C8.51008 9.73415 8.24593 9.47 7.92008 9.47C7.59423 9.47 7.33008 9.73415 7.33008 10.06C7.33008 10.3858 7.59423 10.65 7.92008 10.65Z" stroke="#2C2C2C" stroke-width="1.12" stroke-miterlimit="10" stroke-linecap="round" stroke-linejoin="round"/>
<path d="M8.40021 4.13H18.2402C18.7602 4.13 19.1502 4.6 19.0602 5.11L17.6102 13.15C17.3902 14.36 16.3402 15.24 15.1102 15.24H4.89021C3.66021 15.24 2.61021 14.36 2.39021 13.15L0.940207 5.12001C0.850207 4.61001 1.24021 4.14001 1.76021 4.14001H6.15021" stroke="#2C2C2C" stroke-width="1.12" stroke-miterlimit="10" stroke-linecap="round" stroke-linejoin="round"/>
<path d="M13.46 3.71002L12.96 1.53002C12.87 1.12002 12.5 0.830017 12.08 0.830017H7.60001C7.18001 0.830017 6.81001 1.12002 6.72001 1.53002L5.76001 5.97002" stroke="#2C2C2C" stroke-width="1.12" stroke-miterlimit="10" stroke-linecap="round" stroke-linejoin="round"/>
<path d="M16.2302 3.71002L15.7302 1.53002C15.6402 1.12002 15.2702 0.830017 14.8502 0.830017H14.2402" stroke="#2C2C2C" stroke-width="1.12" stroke-miterlimit="10" stroke-linecap="round" stroke-linejoin="round"/>
<path d="M5.9502 17.18H14.0502" stroke="#2C2C2C" stroke-width="1.12" stroke-miterlimit="10" stroke-linecap="round" stroke-linejoin="round"/>
</g>
<defs>
<clipPath id="clip0_10445_21682">
<rect width="19.26" height="17.48" fill="white" transform="translate(0.370117 0.26001)"/>
</clipPath>
</defs>
</svg>
