<svg width="39" height="40" viewBox="0 0 39 40" fill="none" xmlns="http://www.w3.org/2000/svg">
<path d="M13.2334 29.8914C11.829 28.4411 10.6081 26.7337 9.70848 25.0814C8.81807 23.4658 8.15717 21.7768 7.71655 20.0602" stroke="#00A9EA" stroke-width="3.65006" stroke-miterlimit="10" stroke-linecap="round" stroke-linejoin="round"/>
<path d="M32.8958 19.8306C31.0324 27.3394 24.9923 33.6824 20.2924 33.6824C17.8598 33.6824 15.3447 32.076 13.2334 29.8913" stroke="#25258C" stroke-width="3.65006" stroke-miterlimit="10" stroke-linecap="round"/>
<path d="M30.6927 13.2672C30.6927 21.6021 23.8999 29.2303 20.2923 29.2303C18.2269 29.2303 14.5919 26.3204 12.2144 21.9601C10.8375 19.4541 9.88281 16.4524 9.88281 13.2672C9.88281 7.52081 14.546 2.86682 20.2923 2.86682C21.3571 2.86682 22.3945 3.03205 23.3583 3.32579C27.6084 4.63846 30.6927 8.59481 30.6927 13.2672Z" fill="#FF4200"/>
<path d="M23.3583 3.32579C23.4409 6.29994 22.6239 9.79732 20.8523 13.1937C18.6125 17.4805 15.3721 20.6199 12.2144 21.9601C10.8375 19.4541 9.88281 16.4524 9.88281 13.2672C9.88281 7.52081 14.546 2.86682 20.2923 2.86682C21.3571 2.86682 22.3945 3.03205 23.3583 3.32579Z" fill="#FC781F"/>
<path d="M24.4231 13.2671C24.4231 15.5528 22.5689 17.3979 20.2924 17.3979C18.0067 17.3979 16.1616 15.5437 16.1616 13.2671C16.1616 10.9815 18.0159 9.13638 20.2924 9.13638C22.5689 9.13638 24.4231 10.9815 24.4231 13.2671Z" fill="white"/>
</svg>
