<svg width="40" height="40" viewBox="0 0 40 40" fill="none" xmlns="http://www.w3.org/2000/svg">
<path d="M35.3941 17.6368C35.3941 24.6958 29.6661 30.4238 22.6071 30.4238C19.8532 30.4238 17.2922 29.5517 15.2084 28.0555C11.9497 25.7423 9.82007 21.942 9.82007 17.6368C9.82007 10.5778 15.5481 4.84979 22.6071 4.84979C29.2714 4.84979 34.7515 9.95358 35.3298 16.471C35.3757 16.8474 35.3941 17.2329 35.3941 17.6368Z" fill="#FC781F"/>
<path d="M6.543 22.9606C5.32213 18.3342 6.28598 13.1937 9.59059 9.2373" stroke="#00A9EA" stroke-width="3.65006" stroke-miterlimit="10" stroke-linecap="round" stroke-linejoin="round"/>
<path d="M33.9618 27.7708C33.7048 28.1564 33.4294 28.5235 33.1173 28.8815C27.6922 35.3806 18.0262 36.2435 11.5272 30.8184C8.99364 28.6979 7.3138 25.9349 6.54272 22.9516" stroke="#25258C" stroke-width="3.65006" stroke-miterlimit="10" stroke-linecap="round"/>
<path d="M35.394 17.6367C35.394 24.6957 29.666 30.4237 22.607 30.4237C19.8532 30.4237 17.2921 29.5517 15.2084 28.0554C14.6117 26.651 14.2812 25.1088 14.2812 23.484C14.2812 17.0217 19.5136 11.7894 25.9667 11.7894C29.7946 11.7894 33.2001 13.6253 35.3298 16.4709C35.3757 16.8473 35.394 17.2328 35.394 17.6367Z" fill="#FF4200"/>
<path d="M22.0103 8.50293V18.4718H29.2253" stroke="white" stroke-width="2.73755" stroke-miterlimit="10" stroke-linecap="round" stroke-linejoin="round"/>
</svg>
