<svg width="39" height="39" viewBox="0 0 39 39" fill="none" xmlns="http://www.w3.org/2000/svg">
<path d="M12.8357 31.7793H10.8988C7.34637 31.7793 4.45483 29.1356 4.45483 25.8861V21.3514" stroke="#9B9B9B" stroke-width="3.65006" stroke-miterlimit="10" stroke-linecap="round" stroke-linejoin="round"/>
<path d="M34.5543 25.8861C34.5543 29.1356 31.6628 31.7793 28.1103 31.7793H12.8357" stroke="#6E6E6E" stroke-width="3.65006" stroke-miterlimit="10" stroke-linecap="round"/>
<path d="M31.8004 9.94126V24.0317C31.8004 25.7667 30.1482 27.1711 28.1103 27.1711H10.8896C8.85177 27.1711 7.19946 25.7667 7.19946 24.0317V9.94126C7.19946 8.20634 8.85177 6.80188 10.8896 6.80188H28.1103C30.1482 6.80188 31.8004 8.20634 31.8004 9.94126Z" fill="#868686"/>
<path d="M26.559 7.9585C26.559 15.2654 19.5917 21.1953 10.9998 21.1953C9.69628 21.1953 8.41115 21.0576 7.19946 20.8006V9.94126C7.19946 8.20634 8.85177 6.80188 10.8896 6.80188H26.4855C26.5314 7.18742 26.559 7.57296 26.559 7.9585Z" fill="#9B9B9B"/>
<path d="M26.5591 13.1084L19.904 19.7635C19.1972 20.4703 18.0498 20.4703 17.3429 19.7635L14.1301 16.5507" stroke="white" stroke-width="2.73755" stroke-miterlimit="10" stroke-linecap="round" stroke-linejoin="round"/>
</svg>
