<svg width="39" height="40" viewBox="0 0 39 40" fill="none" xmlns="http://www.w3.org/2000/svg">
<path d="M12.8357 32.333H10.8988C7.34637 32.333 4.45483 29.6893 4.45483 26.4398V21.9052" stroke="#00A9EA" stroke-width="3.65006" stroke-miterlimit="10" stroke-linecap="round" stroke-linejoin="round"/>
<path d="M34.5543 26.4398C34.5543 29.6894 31.6628 32.333 28.1103 32.333H12.8357" stroke="#25258C" stroke-width="3.65006" stroke-miterlimit="10" stroke-linecap="round"/>
<path d="M31.8004 10.495V24.5855C31.8004 26.3204 30.1482 27.7249 28.1103 27.7249H10.8896C8.85177 27.7249 7.19946 26.3204 7.19946 24.5855V10.495C7.19946 8.76008 8.85177 7.35562 10.8896 7.35562H28.1103C30.1482 7.35562 31.8004 8.76008 31.8004 10.495Z" fill="#FF4200"/>
<path d="M26.559 8.51224C26.559 15.8191 19.5917 21.749 10.9998 21.749C9.69628 21.749 8.41115 21.6113 7.19946 21.3543V10.495C7.19946 8.76008 8.85177 7.35562 10.8896 7.35562H26.4855C26.5314 7.74116 26.559 8.12671 26.559 8.51224Z" fill="#FC781F"/>
<path d="M26.5591 13.6621L19.904 20.3172C19.1972 21.024 18.0498 21.024 17.3429 20.3172L14.1301 17.1044" stroke="white" stroke-width="2.73755" stroke-miterlimit="10" stroke-linecap="round" stroke-linejoin="round"/>
</svg>
