<svg width="40" height="39" viewBox="0 0 40 39" fill="none" xmlns="http://www.w3.org/2000/svg">
<path d="M32.6751 17.0831C32.6751 24.1421 26.9471 29.8701 19.8881 29.8701C17.9053 29.8701 16.0235 29.4111 14.3529 28.5941C13.7011 28.2912 13.0769 27.9149 12.4894 27.5018C9.23071 25.1886 7.10107 21.3883 7.10107 17.0831C7.10107 10.0241 12.8291 4.29608 19.8881 4.29608C26.2311 4.29608 31.4909 8.92253 32.4915 14.9902C32.5466 15.2931 32.5833 15.6052 32.6108 15.9173C32.6567 16.3028 32.6751 16.6884 32.6751 17.0831Z" fill="#9B9B9B"/>
<path d="M11.0115 31.4215C7.11024 28.6493 4.55835 24.0963 4.55835 18.9282" stroke="#9B9B9B" stroke-width="3.65006" stroke-miterlimit="10" stroke-linecap="round" stroke-linejoin="round"/>
<path d="M35.1444 17.5328C35.1903 17.9917 35.2178 18.4507 35.2178 18.9281C35.2178 27.3915 28.3516 34.2578 19.8881 34.2578C16.5835 34.2578 13.5176 33.2113 11.0208 31.4213" stroke="#6E6E6E" stroke-width="3.65006" stroke-miterlimit="10" stroke-linecap="round"/>
<path d="M32.6754 17.0832C32.6754 24.1422 26.9474 29.8702 19.8884 29.8702C17.9056 29.8702 16.0238 29.4112 14.3532 28.5943C13.8758 27.3091 13.6096 25.923 13.6096 24.4819C13.6096 17.9461 18.897 12.6495 25.4328 12.6495C28.0765 12.6495 30.5182 13.5216 32.4918 14.9903C32.5469 15.2932 32.5836 15.6053 32.6111 15.9174C32.657 16.303 32.6754 16.6885 32.6754 17.0832Z" fill="#868686"/>
<path d="M12.3516 18.3224C12.2782 17.9185 12.2415 17.4962 12.2415 17.074C12.2415 12.8606 15.6562 9.42749 19.888 9.42749C20.8426 9.42749 21.7697 9.6019 22.6234 9.93236" stroke="white" stroke-width="2.73755" stroke-linecap="round" stroke-linejoin="round"/>
<path d="M22.2471 10.3821L23.3394 10.2535L22.6785 9.37231L22.2471 10.3821Z" fill="white"/>
<path d="M27.4242 15.8345C27.4518 16.0089 27.4793 16.1925 27.4885 16.3761C27.516 16.6056 27.5252 16.8351 27.5252 17.0738C27.5252 21.2963 24.1105 24.7294 19.8787 24.7294C18.6395 24.7294 17.4737 24.4357 16.4272 23.9033" stroke="white" stroke-width="2.73755" stroke-miterlimit="10" stroke-linecap="round" stroke-linejoin="round"/>
<path d="M27.7274 15.394L25.0837 18.3957L29.0034 19.1851L27.7274 15.394Z" stroke="white" stroke-width="2.73755" stroke-miterlimit="10" stroke-linecap="round" stroke-linejoin="round"/>
<path d="M12.2877 18.4784L14.9314 15.4767L11.0117 14.6873L12.2877 18.4784Z" stroke="white" stroke-width="2.73755" stroke-miterlimit="10" stroke-linecap="round" stroke-linejoin="round"/>
</svg>
