<svg width="40" height="39" viewBox="0 0 40 39" fill="none" xmlns="http://www.w3.org/2000/svg">
<path d="M35.3941 17.0831C35.3941 24.1421 29.6661 29.8701 22.6071 29.8701C19.8532 29.8701 17.2922 28.998 15.2084 27.5018C11.9497 25.1886 9.82007 21.3883 9.82007 17.0831C9.82007 10.0241 15.5481 4.29608 22.6071 4.29608C29.2714 4.29608 34.7515 9.39987 35.3298 15.9173C35.3757 16.2937 35.3941 16.6792 35.3941 17.0831Z" fill="#9B9B9B"/>
<path d="M6.543 22.4069C5.32213 17.7804 6.28598 12.6399 9.59059 8.68359" stroke="#9B9B9B" stroke-width="3.65006" stroke-miterlimit="10" stroke-linecap="round" stroke-linejoin="round"/>
<path d="M33.9618 27.2171C33.7048 27.6026 33.4294 27.9698 33.1173 28.3278C27.6922 34.8269 18.0262 35.6898 11.5272 30.2647C8.99364 28.1442 7.3138 25.3812 6.54272 22.3979" stroke="#6E6E6E" stroke-width="3.65006" stroke-miterlimit="10" stroke-linecap="round"/>
<path d="M35.394 17.0831C35.394 24.1421 29.666 29.87 22.607 29.87C19.8532 29.87 17.2921 28.998 15.2084 27.5017C14.6117 26.0973 14.2812 24.5551 14.2812 22.9304C14.2812 16.468 19.5136 11.2357 25.9667 11.2357C29.7946 11.2357 33.2001 13.0716 35.3298 15.9173C35.3757 16.2936 35.394 16.6792 35.394 17.0831Z" fill="#868686"/>
<path d="M22.0103 7.94922V17.9181H29.2253" stroke="white" stroke-width="2.73755" stroke-miterlimit="10" stroke-linecap="round" stroke-linejoin="round"/>
</svg>
