<svg width="40" height="40" viewBox="0 0 40 40" fill="none" xmlns="http://www.w3.org/2000/svg">
<path d="M32.6751 17.6368C32.6751 24.6958 26.9471 30.4238 19.8881 30.4238C17.9053 30.4238 16.0235 29.9648 14.3529 29.1478C13.7011 28.8449 13.0769 28.4686 12.4894 28.0555C9.23071 25.7423 7.10107 21.942 7.10107 17.6368C7.10107 10.5778 12.8291 4.84979 19.8881 4.84979C26.2311 4.84979 31.4909 9.47624 32.4915 15.5439C32.5466 15.8468 32.5833 16.1589 32.6108 16.471C32.6567 16.8565 32.6751 17.2421 32.6751 17.6368Z" fill="#FC781F"/>
<path d="M11.0115 31.9752C7.11024 29.203 4.55835 24.65 4.55835 19.4819" stroke="#00A9EA" stroke-width="3.65006" stroke-miterlimit="10" stroke-linecap="round" stroke-linejoin="round"/>
<path d="M35.1444 18.0865C35.1903 18.5455 35.2178 19.0044 35.2178 19.4818C35.2178 27.9452 28.3516 34.8115 19.8881 34.8115C16.5835 34.8115 13.5176 33.765 11.0208 31.975" stroke="#25258C" stroke-width="3.65006" stroke-miterlimit="10" stroke-linecap="round"/>
<path d="M32.6754 17.6369C32.6754 24.6959 26.9474 30.4239 19.8884 30.4239C17.9056 30.4239 16.0238 29.9649 14.3532 29.148C13.8758 27.8628 13.6096 26.4767 13.6096 25.0356C13.6096 18.4998 18.897 13.2032 25.4328 13.2032C28.0765 13.2032 30.5182 14.0753 32.4918 15.544C32.5469 15.8469 32.5836 16.159 32.6111 16.4711C32.657 16.8566 32.6754 17.2422 32.6754 17.6369Z" fill="#FF4200"/>
<path d="M12.3516 18.876C12.2782 18.4722 12.2415 18.0499 12.2415 17.6276C12.2415 13.4143 15.6562 9.98114 19.888 9.98114C20.8426 9.98114 21.7697 10.1556 22.6234 10.486" stroke="white" stroke-width="2.73755" stroke-linecap="round" stroke-linejoin="round"/>
<path d="M22.2471 10.9357L23.3394 10.8072L22.6785 9.92596L22.2471 10.9357Z" fill="white"/>
<path d="M27.4242 16.3882C27.4518 16.5627 27.4793 16.7462 27.4885 16.9298C27.516 17.1593 27.5252 17.3888 27.5252 17.6275C27.5252 21.85 24.1105 25.2831 19.8787 25.2831C18.6395 25.2831 17.4737 24.9894 16.4272 24.457" stroke="white" stroke-width="2.73755" stroke-miterlimit="10" stroke-linecap="round" stroke-linejoin="round"/>
<path d="M27.7274 15.9477L25.0837 18.9494L29.0034 19.7388L27.7274 15.9477Z" stroke="white" stroke-width="2.73755" stroke-miterlimit="10" stroke-linecap="round" stroke-linejoin="round"/>
<path d="M12.2877 19.032L14.9314 16.0304L11.0117 15.2409L12.2877 19.032Z" stroke="white" stroke-width="2.73755" stroke-miterlimit="10" stroke-linecap="round" stroke-linejoin="round"/>
</svg>
