<svg width="39" height="39" viewBox="0 0 39 39" fill="none" xmlns="http://www.w3.org/2000/svg">
<path d="M29.9712 17.4411C29.9712 24.5001 24.2432 30.2281 17.1842 30.2281C15.2014 30.2281 13.3197 29.7691 11.649 28.9521C10.9973 28.6492 10.373 28.2728 9.78556 27.8597C6.52685 25.5465 4.39722 21.7462 4.39722 17.4411C4.39722 10.382 10.1252 4.65405 17.1842 4.65405C23.5272 4.65405 28.7871 9.2805 29.7876 15.3481C29.8427 15.6511 29.8794 15.9632 29.907 16.2753C29.9529 16.6608 29.9712 17.0463 29.9712 17.4411Z" fill="#9B9B9B"/>
<path d="M27.2447 5.41595C27.6394 5.64544 28.025 5.90246 28.4105 6.18703C35.2308 11.199 36.7087 20.7916 31.6967 27.6119C29.7415 30.274 27.0795 32.1282 24.1604 33.0829" stroke="#6E6E6E" stroke-width="3.65006" stroke-miterlimit="10" stroke-linecap="round"/>
<path d="M29.971 17.4411C29.971 24.5001 24.243 30.2281 17.184 30.2281C15.2013 30.2281 13.3195 29.7691 11.6488 28.9521C11.1715 27.667 10.9053 26.2809 10.9053 24.8397C10.9053 18.3039 16.1927 13.0074 22.7284 13.0074C25.3721 13.0074 27.8139 13.8794 29.7875 15.3481C29.8425 15.6511 29.8793 15.9632 29.9068 16.2753C29.9527 16.6608 29.971 17.0464 29.971 17.4411Z" fill="#868686"/>
<path d="M16.4403 19.7358L14.2097 21.7002L14.2189 24.3898C14.2189 24.5642 14.1546 24.7294 14.0261 24.8487L13.5671 25.3077C13.2367 25.6382 12.6859 25.528 12.5115 25.0966L11.5752 22.866C11.3916 22.4345 11.052 22.0949 10.6205 21.9113L8.38994 20.975C7.96769 20.8006 7.85752 20.2406 8.1788 19.9194L8.63778 19.4604C8.75711 19.341 8.92234 19.2676 9.09675 19.2676H11.7863L13.7507 17.037C13.9343 16.8259 13.8701 16.5046 13.6314 16.3761L9.6108 14.2556C9.22526 14.0537 9.10592 13.5488 9.37212 13.1908L9.8311 12.5666C9.98715 12.3646 10.235 12.2545 10.492 12.282L17.1747 13.1265L18.6526 11.4467C19.5705 10.4002 20.8832 9.78522 22.2785 9.73933C23.0955 9.72097 23.7564 10.3819 23.738 11.1989C23.7013 12.5941 23.0771 13.916 22.0306 14.8339L20.3508 16.3118L21.2045 22.9945C21.2412 23.2515 21.131 23.4993 20.9199 23.6554L20.2957 24.1144C19.9469 24.3714 19.442 24.2612 19.2401 23.8757L17.1196 19.8459C16.9727 19.6073 16.6515 19.5522 16.4403 19.7358Z" fill="white"/>
<path d="M24.1693 33.083C19.6255 34.5976 14.4391 33.955 10.2808 30.8983" stroke="#9B9B9B" stroke-width="3.65006" stroke-miterlimit="10" stroke-linecap="round" stroke-linejoin="round"/>
</svg>
