<svg width="39" height="40" viewBox="0 0 39 40" fill="none" xmlns="http://www.w3.org/2000/svg">
<path d="M29.9712 17.9948C29.9712 25.0538 24.2432 30.7818 17.1842 30.7818C15.2014 30.7818 13.3197 30.3228 11.649 29.5058C10.9973 29.2029 10.373 28.8266 9.78556 28.4135C6.52685 26.1003 4.39722 22.3 4.39722 17.9948C4.39722 10.9358 10.1252 5.20779 17.1842 5.20779C23.5272 5.20779 28.7871 9.83424 29.7876 15.9019C29.8427 16.2048 29.8794 16.5169 29.907 16.829C29.9529 17.2145 29.9712 17.6001 29.9712 17.9948Z" fill="#FC781F"/>
<path d="M27.2447 5.9697C27.6394 6.19918 28.025 6.4562 28.4105 6.74077C35.2308 11.7528 36.7087 21.3453 31.6967 28.1656C29.7415 30.8277 27.0795 32.682 24.1604 33.6366" stroke="#25258C" stroke-width="3.65006" stroke-miterlimit="10" stroke-linecap="round"/>
<path d="M29.971 17.9948C29.971 25.0538 24.243 30.7818 17.184 30.7818C15.2013 30.7818 13.3195 30.3228 11.6488 29.5058C11.1715 28.2207 10.9053 26.8346 10.9053 25.3934C10.9053 18.8577 16.1927 13.5611 22.7284 13.5611C25.3721 13.5611 27.8139 14.4331 29.7875 15.9018C29.8425 16.2048 29.8793 16.5169 29.9068 16.829C29.9527 17.2145 29.971 17.6001 29.971 17.9948Z" fill="#FF4200"/>
<path d="M16.4403 20.2895L14.2097 22.2539L14.2189 24.9435C14.2189 25.1179 14.1546 25.2831 14.0261 25.4024L13.5671 25.8614C13.2367 26.1919 12.6859 26.0817 12.5115 25.6503L11.5752 23.4197C11.3916 22.9882 11.052 22.6486 10.6205 22.465L8.38994 21.5287C7.96769 21.3543 7.85752 20.7943 8.1788 20.4731L8.63778 20.0141C8.75711 19.8948 8.92234 19.8213 9.09675 19.8213H11.7863L13.7507 17.5907C13.9343 17.3796 13.8701 17.0583 13.6314 16.9298L9.6108 14.8093C9.22526 14.6074 9.10592 14.1025 9.37212 13.7445L9.8311 13.1203C9.98715 12.9184 10.235 12.8082 10.492 12.8357L17.1747 13.6802L18.6526 12.0004C19.5705 10.9539 20.8832 10.3389 22.2785 10.293C23.0955 10.2747 23.7564 10.9356 23.738 11.7526C23.7013 13.1478 23.0771 14.4697 22.0306 15.3876L20.3508 16.8655L21.2045 23.5482C21.2412 23.8052 21.131 24.0531 20.9199 24.2091L20.2957 24.6681C19.9469 24.9251 19.442 24.815 19.2401 24.4294L17.1196 20.3996C16.9727 20.161 16.6515 20.1059 16.4403 20.2895Z" fill="white"/>
<path d="M24.1693 33.6367C19.6255 35.1513 14.4391 34.5087 10.2808 31.4519" stroke="#00A9EA" stroke-width="3.65006" stroke-miterlimit="10" stroke-linecap="round" stroke-linejoin="round"/>
</svg>
