<svg width="39" height="39" viewBox="0 0 39 39" fill="none" xmlns="http://www.w3.org/2000/svg">
<path d="M13.2334 29.3377C11.829 27.8873 10.6081 26.1799 9.70848 24.5276C8.81807 22.912 8.15717 21.223 7.71655 19.5065" stroke="#9B9B9B" stroke-width="3.65006" stroke-miterlimit="10" stroke-linecap="round" stroke-linejoin="round"/>
<path d="M32.8958 19.2769C31.0324 26.7857 24.9923 33.1287 20.2924 33.1287C17.8598 33.1287 15.3447 31.5223 13.2334 29.3375" stroke="#6E6E6E" stroke-width="3.65006" stroke-miterlimit="10" stroke-linecap="round"/>
<path d="M30.6927 12.7135C30.6927 21.0484 23.8999 28.6765 20.2923 28.6765C18.2269 28.6765 14.5919 25.7667 12.2144 21.4064C10.8375 18.9004 9.88281 15.8987 9.88281 12.7135C9.88281 6.9671 14.546 2.31311 20.2923 2.31311C21.3571 2.31311 22.3945 2.47834 23.3583 2.77208C27.6084 4.08475 30.6927 8.0411 30.6927 12.7135Z" fill="#868686"/>
<path d="M23.3583 2.77208C23.4409 5.74623 22.6239 9.24361 20.8523 12.64C18.6125 16.9268 15.3721 20.0662 12.2144 21.4064C10.8375 18.9004 9.88281 15.8987 9.88281 12.7135C9.88281 6.9671 14.546 2.31311 20.2923 2.31311C21.3571 2.31311 22.3945 2.47834 23.3583 2.77208Z" fill="#9B9B9B"/>
<path d="M24.4231 12.7135C24.4231 14.9992 22.5689 16.8442 20.2924 16.8442C18.0067 16.8442 16.1616 14.99 16.1616 12.7135C16.1616 10.4278 18.0159 8.5827 20.2924 8.5827C22.5689 8.5827 24.4231 10.4278 24.4231 12.7135Z" fill="white"/>
</svg>
