<svg width="23" height="21" viewBox="0 0 23 21" fill="none" xmlns="http://www.w3.org/2000/svg">
<g clip-path="url(#clip0_3074_27217)">
<g clip-path="url(#clip1_3074_27217)">
<path d="M4.54012 14.1C3.80012 12.93 3.37012 11.55 3.37012 10.07C3.37012 5.93 6.74012 2.56 10.8801 2.56C12.3701 2.56 13.7501 2.99 14.9101 3.73" stroke="#2C2C2C" stroke-width="1.12" stroke-miterlimit="10" stroke-linecap="round" stroke-linejoin="round"/>
<path d="M17.2101 6.04999C17.9601 7.21999 18.3801 8.59999 18.3801 10.07C18.3801 14.22 15.0201 17.58 10.8701 17.58C9.3901 17.58 8.0101 17.16 6.8501 16.41" stroke="#2C2C2C" stroke-width="1.12" stroke-miterlimit="10" stroke-linecap="round" stroke-linejoin="round"/>
<path d="M4.54012 14.1C3.80012 12.93 3.37012 11.55 3.37012 10.07C3.37012 5.93 6.74012 2.56 10.8801 2.56C12.3701 2.56 13.7501 2.99 14.9101 3.73" stroke="#2C2C2C" stroke-width="1.12" stroke-miterlimit="10" stroke-linecap="round" stroke-linejoin="round"/>
<path d="M17.2101 6.04999C17.9601 7.21999 18.3801 8.59999 18.3801 10.07C18.3801 14.22 15.0201 17.58 10.8701 17.58C9.3901 17.58 8.0101 17.16 6.8501 16.41" stroke="#2C2C2C" stroke-width="1.12" stroke-miterlimit="10" stroke-linecap="round" stroke-linejoin="round"/>
<path d="M15.24 9.96999L17.08 5.51999L21.53 7.35999" stroke="#2C2C2C" stroke-width="1.12" stroke-miterlimit="10" stroke-linecap="round" stroke-linejoin="round"/>
<path d="M6.85006 10.52L5.01006 14.97L0.560059 13.12" stroke="#2C2C2C" stroke-width="1.12" stroke-miterlimit="10" stroke-linecap="round" stroke-linejoin="round"/>
</g>
</g>
<defs>
<clipPath id="clip0_3074_27217">
<rect width="22.09" height="20.14" fill="white"/>
</clipPath>
<clipPath id="clip1_3074_27217">
<rect width="22.09" height="16.14" fill="white" transform="translate(0 2)"/>
</clipPath>
</defs>
</svg>
