<svg width="27" height="27" viewBox="0 0 27 27" fill="none" xmlns="http://www.w3.org/2000/svg">
<g clip-path="url(#clip0_38_2270)">
<path d="M19.4 9.8C22.1614 9.8 24.4 7.6062 24.4 4.9C24.4 2.1938 22.1614 0 19.4 0C16.6386 0 14.4 2.1938 14.4 4.9C14.4 7.6062 16.6386 9.8 19.4 9.8Z" fill="#FF4200"/>
<path d="M7.59998 9.8C10.3614 9.8 12.6 7.6062 12.6 4.9C12.6 2.1938 10.3614 0 7.59998 0C4.83855 0 2.59998 2.1938 2.59998 4.9C2.59998 7.6062 4.83855 9.8 7.59998 9.8Z" fill="#00A9EA"/>
<path d="M16 18.7L14.8 19.4C12.5 20.8 11 23.3 11 26.1V26.5C8.3 26 5.8 24.7 4 22.8C1.6 20.4 0 17 0 13.3V11H5.3C6.6 11 7.6 12 7.6 13.3C7.6 14.9 8.3 16.4 9.3 17.5C10.4 18.6 11.9 19.2 13.5 19.2C14.4 19.3 15.2 19.1 16 18.7Z" fill="#00A9EA"/>
<path d="M27 11.1V13.4C27 20.8 21 26.8 13.5 26.8C12.8 26.8 12.2 26.8 11.5 26.7C11.3 26.7 11.1 26.6 11 26.6V26.2C11 23.5 12.4 21 14.8 19.5L16 18.8C16.6 18.5 17.2 18.1 17.7 17.6C18.8 16.5 19.4 15.1 19.4 13.4C19.4 12.8 19.7 12.2 20.1 11.8C20.5 11.4 21.1 11.1 21.7 11.1H27Z" fill="#25258C"/>
</g>
<defs>
<clipPath id="clip0_38_2270">
<rect width="27" height="26.8" fill="white"/>
</clipPath>
</defs>
</svg>
